# xmcd CD database file
#
# Track frame offsets:
#	150
#	19444
#	42268
#	62080
#	87942
#	110035
#	121294
#	132581
#	149160
#	182117
#	202795
#	218614
#	231048
#	247943
#	267042
#
# Disc length: 3760 seconds
#
# Revision: 0
# Processed by: cddbd v1.5.2PL0 Copyright (c) Steve Scherf et al.
# Submitted via: CDex 1.51
#
DISCID=dc0eae0f
DTITLE=Tom Waits - Orphans
DYEAR=2006
DGENRE=Jazz
TTITLE0=LowDown
TTITLE1=2:19
TTITLE2=Fish In The Jailhouse
TTITLE3=Bottom Of The World
TTITLE4=Lucinda
TTITLE5=Aint' Goin' Down To The Well
TTITLE6=Lord I've Been Changed
TTITLE7=Puttin' On The Dog
TTITLE8=Road To Peace
TTITLE9=All The Time
TTITLE10=The Return Of Jackie And Judie
TTITLE11=Walk Away
TTITLE12=Sea Of Love
TTITLE13=Buzz Fledderjohn
TTITLE14=Rains On Me
EXTD=YEAR: 2006
EXTT0=
EXTT1=
EXTT2=
EXTT3=
EXTT4=
EXTT5=
EXTT6=
EXTT7=
EXTT8=
EXTT9=
EXTT10=
EXTT11=
EXTT12=
EXTT13=
EXTT14=
PLAYORDER=
